<svg width="656" height="544" viewBox="0 0 656 544" fill="none" xmlns="http://www.w3.org/2000/svg">
<path fill-rule="evenodd" clip-rule="evenodd" d="M628.566 377.06C622.306 378.99 617.726 379.02 327.056 378.95C42.3364 378.88 31.7364 378.81 26.7064 377.02C23.9529 376.042 21.2061 374.673 18.5901 373.018C16.7843 371.876 15.0409 370.597 13.4006 369.217C12.7464 368.667 12.1086 368.1 11.4898 367.52C9.64175 365.787 7.96316 363.929 6.52299 362.006C5.87619 361.143 5.27748 360.266 4.73311 359.382C4.30649 358.688 3.91325 357.99 3.55639 357.29C2.09857 354.433 1.10652 351.866 0.548136 348.952C-0.517527 343.39 -0.00371027 336.56 1.86639 324.02C4.79639 304.31 19.1764 204.19 31.3664 118.52C43.0064 36.71 43.7364 32.32 46.8064 25.85C52.0164 14.83 61.9664 6.21001 74.2764 2.07001L80.3964 0L329.736 0.26001L579.066 0.520004L587.656 4.77C597.066 9.44 603.776 15.81 607.866 23.97C608.198 24.6398 608.496 25.1828 608.771 25.6841C608.919 25.9537 609.06 26.2112 609.196 26.47C611.986 31.8185 612.885 38.1415 630.477 161.808L630.612 162.754C632.092 173.161 633.69 184.394 635.416 196.52C642.546 246.57 649.966 298.32 651.906 311.52C655.207 334.011 655.975 343.244 654.837 349.266C654.72 349.884 654.583 350.469 654.426 351.03C653.683 353.708 652.438 356.419 650.817 359.038C650.264 359.931 649.668 360.813 649.033 361.68C647.575 363.67 645.912 365.577 644.104 367.343C643.488 367.945 642.855 368.53 642.208 369.097C640.57 370.53 638.838 371.843 637.052 372.998C634.307 374.773 631.433 376.173 628.566 377.06Z" fill="black"/>
<path fill-rule="evenodd" clip-rule="evenodd" d="M3.01565 371.198C2.53497 374.491 2.14785 377.127 1.86639 379.02C-0.00371027 391.56 -0.517527 398.39 0.548135 403.952C1.10652 406.866 2.09857 409.433 3.55639 412.29C3.91325 412.99 4.30649 413.688 4.73311 414.382C5.27748 415.266 5.87619 416.143 6.52299 417.006C7.96316 418.929 9.64175 420.787 11.4898 422.52C15.9077 426.664 21.294 430.098 26.7064 432.02C31.7364 433.81 42.3364 433.88 327.056 433.95C617.726 434.02 622.306 433.99 628.566 432.06C634.035 430.367 639.534 426.807 644.104 422.344C645.912 420.577 647.575 418.67 649.033 416.68C649.668 415.813 650.264 414.931 650.817 414.038C652.438 411.419 653.683 408.708 654.426 406.03C654.583 405.469 654.72 404.884 654.837 404.266C655.898 398.653 655.303 390.249 652.544 370.92C652.031 371.968 651.453 373.01 650.817 374.038C649.447 376.251 647.809 378.399 645.976 380.407C645.372 381.069 644.747 381.715 644.104 382.344C642.503 383.907 640.789 385.359 639.002 386.66C635.686 389.072 632.12 390.96 628.566 392.06C622.306 393.99 617.726 394.02 327.056 393.95C42.3364 393.88 31.7364 393.81 26.7064 392.02C23.2553 390.795 19.8148 388.954 16.6292 386.707C14.8188 385.43 13.0907 384.021 11.4898 382.52C10.8386 381.909 10.2084 381.283 9.60228 380.644C7.71584 378.655 6.06245 376.542 4.73311 374.382C4.30649 373.688 3.91325 372.99 3.55639 372.29C3.36842 371.922 3.1882 371.558 3.01565 371.198ZM1.86639 339.02C1.3009 342.812 0.859426 346.081 0.548136 348.952C1.10652 351.866 2.09857 354.433 3.55639 357.29C3.91325 357.99 4.30649 358.688 4.73311 359.382C5.27748 360.266 5.87619 361.143 6.52299 362.006C7.96316 363.929 9.64175 365.787 11.4898 367.52C12.1086 368.1 12.7464 368.667 13.4006 369.217C15.0409 370.597 16.7843 371.876 18.5901 373.018C21.2061 374.673 23.9529 376.042 26.7064 377.02C31.7364 378.81 42.3364 378.88 327.056 378.95C617.726 379.02 622.306 378.99 628.566 377.06C631.433 376.173 634.307 374.773 637.052 372.998C638.838 371.843 640.57 370.53 642.208 369.097C642.855 368.53 643.488 367.945 644.104 367.343C645.912 365.577 647.575 363.67 649.033 361.68C649.668 360.813 650.264 359.931 650.817 359.038C652.438 356.419 653.683 353.708 654.426 351.03C654.583 350.469 654.72 349.884 654.837 349.266C654.31 343.66 653.35 336.359 651.906 326.52C649.966 313.32 642.546 261.57 635.416 211.52C633.797 200.141 632.29 189.549 630.887 179.687L630.686 178.278L630.612 177.754L630.477 176.808C612.885 53.1415 611.986 46.8185 609.196 41.47C609.06 41.2112 608.919 40.9537 608.771 40.6841C608.496 40.1828 608.198 39.6398 607.866 38.97C603.776 30.81 597.066 24.44 587.656 19.77L579.066 15.52L329.736 15.26L80.3964 15L74.2764 17.07C61.9664 21.21 52.0164 29.83 46.8064 40.85C43.7364 47.32 43.0064 51.71 31.3664 133.52C19.1764 219.19 4.79639 319.31 1.86639 339.02ZM645.976 435.407C647.809 433.399 649.447 431.251 650.817 429.038C651.453 428.01 652.031 426.968 652.544 425.92C655.303 445.249 655.898 453.653 654.837 459.266C654.72 459.884 654.583 460.469 654.426 461.03C653.683 463.708 652.438 466.419 650.817 469.038C645.79 477.161 637.141 484.406 628.566 487.06C622.306 488.99 617.726 489.02 327.056 488.95C42.3364 488.88 31.7364 488.81 26.7064 487.02C18.0132 483.933 9.38722 476.944 4.73311 469.382C4.30649 468.688 3.91325 467.99 3.55639 467.29C2.09857 464.433 1.10652 461.866 0.548136 458.952C-0.517527 453.39 -0.00371027 446.56 1.86639 434.02C2.14785 432.127 2.53497 429.491 3.01565 426.198C3.18821 426.558 3.36841 426.922 3.55639 427.29C3.91325 427.99 4.30649 428.688 4.73311 429.382C6.06245 431.542 7.71584 433.655 9.60228 435.644C14.3204 440.618 20.4962 444.815 26.7064 447.02C31.7364 448.81 42.3364 448.88 327.056 448.95C617.726 449.02 622.306 448.99 628.566 447.06C634.805 445.129 641.082 440.768 645.976 435.407ZM3.01565 481.198C2.53497 484.491 2.14785 487.127 1.86639 489.02C-0.983611 508.13 -0.683609 513.98 3.55639 522.29C7.80639 530.63 17.2164 538.65 26.7064 542.02C31.7364 543.81 42.3364 543.88 327.056 543.95C617.726 544.02 622.306 543.99 628.566 542.06C639.906 538.55 651.376 527.01 654.426 516.03C656.003 510.371 655.607 502.379 652.544 480.92C647.98 490.254 638.226 499.07 628.566 502.06C622.306 503.99 617.726 504.02 327.056 503.95C42.3364 503.88 31.7364 503.81 26.7064 502.02C17.2164 498.65 7.80639 490.63 3.55639 482.29C3.36842 481.922 3.1882 481.558 3.01565 481.198Z" fill="black"/>
</svg>
